<?xml version="1.0" encoding="utf-8"?>
<!-- Generator: Adobe Illustrator 16.0.0, SVG Export Plug-In . SVG Version: 6.00 Build 0)  -->
<!DOCTYPE svg PUBLIC "-//W3C//DTD SVG 1.1//EN" "http://www.w3.org/Graphics/SVG/1.1/DTD/svg11.dtd">
<svg version="1.1" id="Layer_1" xmlns="http://www.w3.org/2000/svg" xmlns:xlink="http://www.w3.org/1999/xlink" x="0px" y="0px"
	 width="1084px" height="1085px" viewBox="0 0 1084 1085" enable-background="new 0 0 1084 1085" xml:space="preserve">
<path fill-rule="evenodd" clip-rule="evenodd" fill="#AA8C52" d="M801.015,986.118c-28.124-0.856-55.157-6.608-81.266-16.646
	c-5.256-2.021-7.982-1.336-11.445,3.276c-12.487,16.638-24.409,33.922-38.638,48.984c-31.927,33.797-71.656,53.662-117.782,60.043
	c-46.269,6.4-89.392-1.819-128.179-28.963c-22.271-15.586-37.538-36.516-47.508-61.585c-1.962-4.936-3.967-9.905-6.531-14.538
	c-4.754-8.586-12.604-11.475-21.987-10.434c-12.54,1.39-25.025,3.327-37.583,4.513c-31.222,2.947-62.02,0.41-91.243-11.337
	c-57.434-23.088-97.043-64.153-117.456-122.549c-14.329-40.99,0.323-73.986,14.02-112.182c4.242-11.834-6.892-19.255-15.278-24.926
	c-41.412-27.994-71.927-64.51-88.021-112.322c-19.547-58.07-10.273-128.017,30.327-175.168
	c15.86-18.419,35.928-30.468,58.986-37.741c1.586-0.5,3.201-0.916,4.769-1.466c12.93-4.534,17.682-13.123,14.638-26.489
	c-4.241-18.622-7.043-37.684-6.414-56.828c1.887-57.487,23.174-106.405,65.354-145.754c31.45-29.339,73.264-49.38,117.038-46.267
	c22.503,1.6,43.908,9.104,63.941,19.182c11.141,5.605,11.409,5.188,18.609-5.446c7.458-11.014,14.863-22.108,23.447-32.292
	c33.936-40.259,77.099-64.692,129.265-72.954c26.551-4.205,52.974-4.888,79.088,2.693c34.918,10.136,61.238,32.009,80.692,61.903
	c5.595,8.599,24.898,57.176,34.968,54.188c106.37-31.563,236.004,22.44,258.549,138.033c6.799,34.854-5.186,66.4-14.898,99.267
	c-2.336,7.908,0.421,14.537,6.326,19.742c3.85,3.394,8.203,6.252,12.493,9.107c46.788,31.141,77.866,73.421,88.651,128.937
	c8.942,46.029,4.431,90.892-18.559,132.612c-16.912,30.69-43.587,49.665-76.358,60.758c-19.019,6.438-22.129,12.663-17.864,32.192
	c16.485,75.489-3.416,141.016-55.909,196.649c-22.514,23.86-51.344,37.019-83.955,41.381
	C817.242,984.771,809.112,985.323,801.015,986.118C772.891,985.262,809.112,985.323,801.015,986.118z M567.191,711.298
	c-1.001,2.032-1.896,3.553-2.527,5.176c-15.112,38.916-30.015,77.916-45.413,116.719c-3.904,9.839-2.013,18.055,3.512,26.279
	c3.151,4.691,6.286,9.436,8.929,14.421c14.934,28.173,5.982,57.536-16.021,76.581c-14.658,12.688-32.277,14.906-50.719,12.483
	c-9.914-1.302-20.98,3.136-23.032,10.708c-2.626,9.693-1.724,19.364,6.14,26.267c8.838,7.759,18.039,15.506,28.208,21.271
	c34.222,19.402,70.443,20.185,107.053,8.076c43.051-14.238,76.36-40.624,97.477-81.403c2.424-4.682,3.098-9.235,1.556-14.379
	c-9.85-32.866-13.45-65.611-32.686-95.126c-26.821-41.156-53.213-82.594-79.805-123.9
	C569.255,713.527,568.412,712.735,567.191,711.298C566.19,713.33,568.412,712.735,567.191,711.298z M711.875,518.898
	c1.679,0.954,2.469,1.537,3.353,1.885c38.824,15.315,77.598,30.765,116.532,45.796c9.379,3.621,18.883,3.559,27.125-3.879
	c2.572-2.32,5.655-4.114,8.635-5.938c22.339-13.673,51.583-13.095,72.328,3.409c10.689,8.505,18.436,20.762,21.451,34.101
	c3.321,14.683-7.384,38.406,5.862,49.104c6.527,5.271,13.844,5.058,21.177,1.846c56.372-24.698,54.432-109.781,34.227-156.617
	c-11.566-26.811-30.365-49.718-52.645-68.375c-10.378-8.69-21.956-16.602-36.115-15.993c-17.347,0.746-30.31,14.039-47.493,16.412
	c-16.555,2.284-32.362,6.142-46.793,15.62c-40.919,26.875-82.293,53.058-123.479,79.528
	C714.818,516.583,713.701,517.532,711.875,518.898C713.554,519.853,713.701,517.532,711.875,518.898z M446.963,674.423
	c-6.284,2.478-11.235,4.188-15.985,6.341c-36.07,16.352-72.103,32.786-108.143,49.205c-13.318,6.07-17.493,16.563-19.083,30.68
	c-4.358,38.705-42.002,56.393-71.321,51.373c-16.03-2.745-28.116-12.016-39.034-23.542c-3.481-3.676-15.818-16.098-21.915-12.419
	c-23.815,14.364-21.622,43.455-11.333,66.619c15.965,35.944,41.248,63.099,77.974,78.459c35.895,15.013,73.167,15.227,110.783,8.776
	c20.506-3.516,27.295-36.286,35.826-52.485c12.664-24.047,27.788-48.116,30.016-75.884c0.77-9.589,0.846-19.474,3.367-28.638
	C427.189,739.92,437.588,707.322,446.963,674.423C440.679,676.9,445.922,678.076,446.963,674.423z M517.511,374.984
	c1.1-2.04,1.846-3.131,2.313-4.331c14.185-36.424,28.393-72.839,42.475-109.303c7.958-20.604-4.203-35.189-11.4-53.459
	c-16.074-40.793,13.113-77.607,42.466-83.008c9.153-1.684,18.143-1.693,27.216,0.092c7.751,1.524,17.519-1.802,20.686-6.963
	c3.968-6.465,4.408-18.433,0.338-23.354c-8.629-10.437-17.925-20.342-29.813-27.091c-27.309-15.505-56.986-19.155-87.459-14.591
	c-48.211,7.221-84.733,33.604-112.745,72.485c-12.057,16.734-11.706,34.32,0.063,51.114c5.444,7.768,7.105,16.126,8.127,25.19
	c1.427,12.662,2.853,25.336,10.119,36.616c27.96,43.403,55.63,86.993,83.42,130.506
	C514.462,370.679,515.726,372.396,517.511,374.984C518.61,372.945,515.726,372.396,517.511,374.984z M406.881,446.856
	c-0.653-2.333-0.806-3.317-1.193-4.198c-17.21-39.149-34.29-78.357-51.874-117.338c-2.051-4.546-6.359-8.642-10.602-11.481
	c-4.869-3.258-10.81-4.936-16.324-7.203c-7.216-2.966-14.773-5.254-21.653-8.85c-41.78-21.838-38.988-77.566-5.593-105.054
	c4.11-3.383,7.287-8.052,10.347-12.506c8.786-12.781-15.471-25.438-24.954-24.917c-14.683,0.807-29.363,0.872-43.067,6.851
	c-35.008,15.274-60.016,40.816-75.768,75.414c-14.795,32.496-17.762,66.623-12.235,101.539c3.625,22.9,14.876,34.389,35.638,37.011
	c21.536,2.72,33.271,25.093,55,30.178c48.866,11.438,97.629,22.59,146.247,35.167C395.919,442.778,400.805,444.792,406.881,446.856
	C406.228,444.523,400.805,444.792,406.881,446.856z M681.094,646.199c0.959,2.832,1.342,4.257,1.912,5.603
	c15.76,37.222,31.655,74.386,47.229,111.685c3.773,9.037,10.32,13.798,19.421,16.171c8.344,2.175,16.783,4.248,24.811,7.33
	c39.282,15.08,47.875,65.747,24.606,93.795c-5.278,6.363-11.87,11.618-17.594,17.634c-10.873,11.428-7.22,29.774,9.637,32.807
	c13.058,2.35,26.421,2.197,39.076-1.703c37.355-11.515,65.879-34.335,83.938-69.24c12.772-24.688,19.142-52.103,20.181-79.801
	c1.242-33.099-9.571-49.165-37.014-66.616c-12.054-7.667-24.329-14.992-36.278-22.815c-7.57-4.956-15.139-9.551-24.153-11.498
	c-45.599-9.848-91.165-19.842-136.754-29.733C694.185,648.53,688.195,647.541,681.094,646.199
	C682.053,649.031,688.195,647.541,681.094,646.199z M379.582,570.293c-2.659-1.173-4.234-1.967-5.879-2.576
	c-7.015-2.603-14.088-5.051-21.07-7.735c-30.572-11.758-61.126-23.562-91.673-35.387c-8.116-3.142-16.412-6.575-25.105-3.785
	c-6.048,1.941-11.912,5.056-17.213,8.608c-13.035,8.735-26.721,13.396-42.745,11.394c-20.025-2.502-37.534-16.148-46.638-33.897
	c-4.542-8.854-7.011-18.799-6.695-28.771c0.287-9.026,5.948-25.385-3.464-31.929c-7.6-5.284-21.49-4.817-28.687,1.017
	c-5.028,4.075-9.97,8.4-14.242,13.238c-17.734,20.084-23.971,44.651-25.32,70.477c-1.728,33.087,6.684,63.976,23.582,92.442
	c14.531,24.479,34.04,43.845,59.781,56.518c6.725,3.312,13.796,5.177,21.2,2.638c22.338-7.663,44.694-15.282,66.912-23.28
	c24.135-8.688,46.932-19.921,65.67-37.934c8.271-7.951,17.542-14.242,27.774-19.275c19.258-9.472,38.494-18.988,57.732-28.501
	C375.22,572.703,376.883,571.744,379.582,570.293C376.923,569.12,376.883,571.744,379.582,570.293z M641.974,408.396
	c2.169-0.709,2.966-0.89,3.696-1.22c29.293-13.245,58.581-26.5,87.871-39.752c22.205-10.046,44.813-17.331,49.013-44.381
	c2.978-19.178,12.771-33.991,31.016-41.743c15.774-6.702,33.697-8.252,50.011-2.504c17.473,6.156,27.482,21.103,42.704,30.601
	c6.06,3.782,9.067,3.122,14.196-1.939c11.786-11.63,15.47-25.491,11.367-41.588c-19.612-76.945-94.032-119.386-170.947-111.986
	c-8.724,0.839-17.406,2.625-25.953,4.632c-8.712,2.047-15.063,6.763-17.756,16.214c-2.079,7.292-5.548,14.262-8.989,21.077
	c-7.875,15.595-16.355,30.886-24.128,46.531c-13.546,27.267-12.118,55.211-19.16,83.985c-5.718,23.37-12.974,46.363-19.565,69.52
	C644.274,399.616,643.309,403.419,641.974,408.396C644.143,407.688,643.309,403.419,641.974,408.396z M359.782,472.104
	c0.401-0.589,0.804-1.178,1.205-1.767c11.423,0,22.869-0.348,34.287,0.107c5.182,0.206,5.561-2.945,5.997-6.509
	c0.403-3.293,0.472-5.85-4.104-6.779c-35.772-7.267-71.405-15.246-107.258-22.079c-16.05-3.059-32.469,5.481-36.444,23.993
	c-0.487,2.271-1.213,4.506-1.504,6.799c-2.376,18.747,0.764,32.888,22.096,42.366c11.244,4.996,22.171,10.705,33.427,15.671
	c13.827,6.1,27.591,12.498,41.839,17.458c31.223,10.869,63.391,15.99,96.557,12.962c1.584-0.145,3.127-0.738,6.073-1.463
	c-3.065-1.599-4.634-2.472-6.247-3.25c-20.076-9.686-40.135-19.409-60.267-28.979c-3.282-1.56-4.485-2.788-2.592-6.669
	c7.708-15.799-6.894-22.768-16.333-32.477C363.861,478.758,361.998,475.26,359.782,472.104
	C360.184,471.515,361.998,475.26,359.782,472.104z M631.636,537.428c-0.026,0.516-0.052,1.03-0.078,1.546
	c24.083,9.212,48.167,18.425,72.687,27.804c-1.291,1.754-1.819,2.852-2.671,3.563c-3.941,3.294-3.724,6.357-0.83,10.581
	c7.71,11.252,16.337,23.001,22.157,35.348c-12.391,0.772-24.163,1.507-35.937,2.241c-0.047,0.49-0.094,0.98-0.141,1.471
	c2.854,1.597,5.677,3.25,8.565,4.78c23.803,12.609,47.393,25.704,75.078,28.026c20.396,1.71,47.555-3.435,59.369-22.249
	c11.477-18.277,0.014-39.223-16.246-49.374c-20.818-12.998-42.825-23.537-65.992-31.686c-28.075-9.874-57.042-15.335-86.632-17.688
	C650.677,530.973,641.145,534.288,631.636,537.428C631.609,537.943,641.145,534.288,631.636,537.428z M530.497,453.51
	c4.792,2.512,6.965,0.968,8.531-3.193c3.924-10.428,8.18-20.731,12.317-31.08c4.554-11.389,9.124-22.771,13.824-34.497
	c1.123,0.725,1.96,1.015,2.421,1.602c3.572,4.545,6.796,3.845,11.178,0.506c11.518-8.775,23.462-16.993,35.252-25.41
	c1.246-0.89,2.6-1.631,4.478-2.798c-0.847,15.501-1.643,30.075-2.438,44.648c0.552,0.165,1.104,0.329,1.657,0.494
	c3.049-5.413,6.242-10.751,9.122-16.252c16.684-31.865,27.621-65.082,24.646-101.78c-1.332-16.43-9.699-27.715-25.728-31.441
	c-23.272-5.41-37.645-0.242-46.922,21.86c-3.796,9.043-8.628,17.653-12.392,26.708c-8.733,21.013-17.702,41.961-25.432,63.349
	c-6.135,16.977-6.866,35.143-8.3,53.028C531.798,430.664,531.223,442.103,530.497,453.51
	C535.289,456.021,531.223,442.103,530.497,453.51z M470.984,484.324c0.741-1.589,0.465-2.93-0.827-4.021
	c-27.426-31.065-15.122-69.604-8.312-105.914c0.887-4.729,1.53-9.503,2.285-14.256c0.512-0.204,1.024-0.409,1.537-0.613
	c7.84,10.816,18.377,19.849,27.397,29.699c4.548,4.967,13.34-1.659,9.689-7.199c-21.155-32.095-40.425-68.147-65.423-97.379
	c-15.124-17.689-35.625-11.739-50.471,2.805c-16.259,15.929-11.409,36.033-5.334,55.48c14.291,45.748,36.514,89.072,69.455,124.237
	C456.768,473.341,463.871,478.284,470.984,484.324C471.23,482.517,463.871,478.284,470.984,484.324z M615.475,601.606
	c-2.982,3.243-1.669,6.048-0.644,8.783c3.412,9.104,28.641,62.374,19.456,66.347c-16.106,6.967-10.814,24.6-10.758,38.483
	c0.023,5.846-2.177,10.891-7.131,14.993c-8.271-10.597-16.289-20.867-24.306-31.138c-1.022,1.611-1.139,2.72-0.866,3.723
	c2.781,10.255,5.094,20.677,8.558,30.699c8.827,25.538,22.628,47.847,44.653,64.232c10.59,7.878,22.789,12.33,35.938,11.252
	c19.86-1.627,32.947-20.978,28.481-41.519c-11.786-54.221-34.782-102.876-72.617-143.988
	C629.512,616.162,622.56,609.056,615.475,601.606C612.492,604.85,622.56,609.056,615.475,601.606z M692.579,497.788
	c0.248,0.462,0.495,0.925,0.743,1.388c7.789-2.575,15.605-5.069,23.36-7.742c34.54-11.905,84.45-32.581,91.364-73.789
	c2.403-14.326-4.373-30.112-17.223-37.282c-15.468-8.63-36.364-0.164-51.92,4.415c-52.487,15.452-105.67,44.146-137.515,89.613
	c0.529,0.423,1.058,0.846,1.587,1.269c1.295-1.128,2.604-2.239,3.881-3.385c16.115-14.453,35.028-20.133,56.32-17.142
	c21.994,3.09,43.825,7.515,65.718,11.253C716.289,477.287,704.435,487.537,692.579,497.788
	C692.827,498.25,704.435,487.537,692.579,497.788z M485.021,612.055c-0.516-0.574-1.031-1.148-1.547-1.723
	c-3.157,1.541-6.585,2.697-9.426,4.69c-12.169,8.538-26.033,13.256-39.847,18.084c-10.944,3.825-21.775,3.327-30.393-4.848
	c-7.55-7.161-15.923-7.197-25.042-6.141c-1.391,0.161-29.532,2.175-18.342-6.083c9.113-6.719,18.419-13.177,27.519-19.912
	c3.506-2.597,0.21-8.551-3.468-7.314c-9.892,3.328-20.555,5.711-29.18,11.207c-25.561,16.288-50.021,34.225-72.657,54.516
	c-3.888,3.485-5.924,7.689-5.927,12.687c-0.003,5.128-0.09,10.446,1.163,15.349c3.299,12.906,9.244,24.704,23.391,27.845
	c7.108,1.577,15.259,0.434,22.565-1.172C385.807,695.622,446.384,662.8,485.021,612.055
	C484.505,611.48,479.661,619.094,485.021,612.055z M550.783,633.939c-0.521-0.157-1.044-0.313-1.566-0.471
	c-10.366,23.766-20.732,47.53-31.142,71.394c-1.463-0.448-2.246-0.656-3.008-0.927c-12.626-4.477-18.611-2.916-27.372,7.088
	c-3.397,3.879-6.631,7.942-10.37,11.466c-2.242,2.114-5.315,3.346-8.832,5.467c-0.397-4.314-0.525-36.942-5.933-36.129
	c-1.734,0.262-3.798,2.302-4.618,4.05c-7.846,16.722-15.207,33.646-16.744,52.382c-1.562,19.017-3.365,38.025-4.231,57.076
	c-0.197,4.336,2.078,9.575,4.859,13.102c6.837,8.669,16.101,14.411,26.766,17.424c14.751,4.167,28.074-1.601,33.77-15.482
	c13.273-32.356,26.016-64.927,39.086-97.365C553.563,692.947,552.938,665.733,550.783,633.939
	C550.262,633.782,551.263,641.016,550.783,633.939z M545.002,563.921c8.281,6.381,15.873,12.229,23.464,18.079
	c-0.983-3.714-2.89-6.411-4.52-9.266c-5.254-9.207-7.94-19.172-3.203-29.029c3.604-7.499,9.208-14.044,13.999-20.96
	c1.022-1.476,2.375-2.723,3.575-4.075c-0.286-0.305-0.572-0.608-0.858-0.913c-7.811,3.749-15.621,7.499-24.093,11.564
	c0-9.16,0.092-17.299-0.091-25.432c-0.03-1.344-1.262-2.66-1.938-3.988c-0.951,1.105-2.441,2.073-2.767,3.341
	c-2.474,9.641-4.735,19.337-7.03,29.023c-1.791,7.557-1.754,7.49-9.267,5.878c-10.306-2.21-20.639-4.299-30.959-6.439
	c-0.205,0.42-0.411,0.84-0.616,1.26c6.846,4.668,13.691,9.337,20.742,14.145c-5.996,7.579-11.599,14.661-17.202,21.743
	c0.295,0.389,0.589,0.778,0.883,1.168c8.591-3.123,17.182-6.247,26.11-9.493c0.886,10.903,1.713,21.086,2.54,31.269
	c0.474,0.096,0.947,0.191,1.421,0.287C538.362,582.982,541.532,573.883,545.002,563.921
	C553.283,570.302,541.532,573.883,545.002,563.921z"/>
</svg>
